<?xml version="1.0" encoding="UTF-8"?>
<svg width="2000" height="2000" version="1.1" viewBox="0 0 529.17 529.17"
     xmlns="http://www.w3.org/2000/svg" xmlns:cc="http://creativecommons.org/ns#">
 <title>bric3.github.io - blog.arkey.fr</title>
 <path transform="scale(.26458)" d="m166.81 2000.6c-31.729-3.6301-68.78-19.408-94.708-40.331-36.035-29.079-60.889-74.054-66.991-121.22-2.2329-17.262-2.2329-1652.5 0-1669.8 3.9899-30.845 17.573-64.71 35.481-88.458 31.643-41.963 79.085-68.364 131.81-73.348 13.035-1.2323 272.43-1.6076 841.92-1.2183 752.98 0.51476 824.1 0.79621 835.01 3.3045 37.834 8.7011 65.82 23.278 91.502 47.659 35.086 33.309 53.353 71.976 57.469 121.65 2.2181 26.77 2.2305 1623.1 0.017 1650.9-3.8656 48.454-23.092 88.864-57.977 121.85-29.22 27.632-65.828 44.569-106.02 49.051-19.84 2.2123-1648.2 2.1323-1667.5-0.083z" fill-opacity=".8" stroke-width="1.6849"/>
 <g>
  <g stroke-width=".26458" aria-label="CA FE BA BE 00 00 00 37 00 @b ri c3">
    <!-- CAFEBABE -->
    <g fill="#fd5">
     <path d="m62.641 110.8q-6.0254 0-11.162-2.2719-5.1364-2.2719-8.9888-6.5193-3.7536-4.3462-5.9267-10.569-2.1731-6.3218-2.1731-14.224 0-7.8034 2.1731-14.026 2.1731-6.223 6.0254-10.569 3.8523-4.3462 9.1863-6.6181 5.334-2.3707 11.656-2.3707 5.8279 0 10.273 2.3707 4.5438 2.3707 7.4083 5.5316l-4.6426 5.2352q-2.5682-2.667-5.7291-4.2474-3.1609-1.6792-7.3096-1.6792-4.6426 0-8.4949 1.8768-3.7536 1.778-6.4206 5.2352-2.667 3.3584-4.1487 8.1986-1.4817 4.8401-1.4817 10.866 0 6.1242 1.4817 11.063 1.4817 4.8401 4.1487 8.2973 2.667 3.4572 6.4206 5.334 3.8523 1.8768 8.4949 1.8768 4.445 0 7.9022-1.8768 3.556-1.8768 6.7169-5.334l4.6426 5.0377q-3.8523 4.445-8.6924 6.9144-4.8401 2.4694-11.359 2.4694z"/>
     <path d="m110.11 73.362-3.0621 9.8778h19.36l-3.0621-9.8778q-1.6792-5.4328-3.3584-10.767-1.5804-5.4328-3.0621-11.063h-0.39512q-1.5804 5.6303-3.1609 11.063-1.5804 5.334-3.2597 10.767zm-19.756 36.251 21.83-64.798h9.2851l21.83 64.798h-8.6924l-6.1242-19.756h-23.509l-6.223 19.756z"/>
     <path d="m218.79 109.61v-64.798h39.807v6.9144h-31.51v21.929h26.67v6.9144h-26.67v29.041z"/>
     <path d="m276.14 109.61v-64.798h40.104v6.9144h-31.806v20.348h26.868v7.0132h-26.868v23.509h32.794v7.0132z"/>
     <path d="m393.12 109.61v-64.798h18.373q4.9389 0 8.9888 0.889 4.1487 0.889 7.0132 2.7658 2.9633 1.8768 4.5438 4.9389 1.6792 2.9633 1.6792 7.2108 0 4.8401-2.7658 8.7912-2.7658 3.8523-8.5937 5.334v0.39511q7.112 1.0866 11.063 4.9389 3.9511 3.8523 3.9511 10.569 0 4.7413-1.778 8.2973-1.778 3.556-5.0377 5.9267-3.1609 2.3707-7.7047 3.556-4.445 1.1853-9.8778 1.1853zm8.1986-37.536h8.7912q8.2973 0 11.853-2.667 3.6548-2.667 3.6548-8.0998 0-5.334-3.8523-7.4083-3.7536-2.1731-11.261-2.1731h-9.1863zm0 30.621h10.47q8.3961 0 12.94-2.8646 4.5438-2.9633 4.5438-9.5814 0-6.0254-4.445-8.5937-4.445-2.667-13.039-2.667h-10.47z"/>
     <path d="m465.48 73.362-3.0621 9.8778h19.36l-3.0621-9.8778q-1.6792-5.4328-3.3584-10.767-1.5804-5.4328-3.0621-11.063h-0.39511q-1.5804 5.6303-3.1609 11.063-1.5804 5.334-3.2597 10.767zm-19.756 36.251 21.83-64.798h9.2851l21.83 64.798h-8.6924l-6.1242-19.756h-23.509l-6.223 19.756z"/>
     <path d="m37.749 233.09v-64.798h18.373q4.9389 0 8.9888 0.889 4.1487 0.889 7.0132 2.7658 2.9633 1.8768 4.5438 4.9389 1.6792 2.9633 1.6792 7.2108 0 4.8401-2.7658 8.7912-2.7658 3.8523-8.5937 5.334v0.39511q7.112 1.0866 11.063 4.9389 3.9511 3.8523 3.9511 10.569 0 4.7413-1.778 8.2973-1.778 3.556-5.0377 5.9267-3.1609 2.3707-7.7047 3.556-4.445 1.1853-9.8778 1.1853zm8.1986-37.536h8.7912q8.2973 0 11.853-2.667 3.6548-2.667 3.6548-8.0998 0-5.334-3.8523-7.4083-3.7536-2.1731-11.261-2.1731h-9.1863zm0 30.621h10.47q8.3961 0 12.94-2.8646 4.5438-2.9633 4.5438-9.5814 0-6.0254-4.445-8.5937-4.445-2.667-13.039-2.667h-10.47z"/>
     <path d="m98.459 233.09v-64.798h40.104v6.9144h-31.806v20.348h26.868v7.0132h-26.868v23.509h32.794v7.0132z"/>
   </g>

   <!-- 00 00 00    00 -->
   <g fill="#555753">
    <path d="m235.29 234.27q-10.569 0-16.595-8.4949-6.0254-8.5937-6.0254-24.398 0-15.903 6.0254-24.201 6.0254-8.2973 16.595-8.2973 10.569 0 16.595 8.2973 6.0254 8.2973 6.0254 24.201 0 15.804-6.0254 24.398-6.0254 8.4949-16.595 8.4949zm0-6.5193q6.6181 0 10.767-6.4206 4.2474-6.4206 4.2474-19.953 0-6.8157-1.0866-11.656-1.0866-4.9389-3.1609-8.0998-1.9756-3.2597-4.7413-4.7413-2.7658-1.4817-6.0254-1.4817t-6.0254 1.4817-4.8401 4.7413q-1.9756 3.1609-3.0621 8.0998-1.0866 4.8401-1.0866 11.656 0 13.533 4.1487 19.953 4.2474 6.4206 10.866 6.4206zm0-20.447q-2.4694 0-4.3462-1.6792-1.778-1.778-1.778-4.9389 0-3.0621 1.778-4.7413 1.8768-1.778 4.3462-1.778 2.4694 0 4.2474 1.778 1.8768 1.6792 1.8768 4.7413 0 3.1609-1.8768 4.9389-1.778 1.6792-4.2474 1.6792z"/>
    <path d="m294.52 234.27q-10.569 0-16.595-8.4949-6.0254-8.5937-6.0254-24.398 0-15.903 6.0254-24.201 6.0254-8.2973 16.595-8.2973 10.569 0 16.595 8.2973 6.0254 8.2973 6.0254 24.201 0 15.804-6.0254 24.398-6.0254 8.4949-16.595 8.4949zm0-6.5193q6.6181 0 10.767-6.4206 4.2474-6.4206 4.2474-19.953 0-6.8157-1.0866-11.656-1.0866-4.9389-3.1609-8.0998-1.9756-3.2597-4.7413-4.7413t-6.0254-1.4817q-3.2597 0-6.0254 1.4817t-4.8401 4.7413q-1.9756 3.1609-3.0621 8.0998-1.0866 4.8401-1.0866 11.656 0 13.533 4.1487 19.953 4.2474 6.4206 10.866 6.4206zm0-20.447q-2.4694 0-4.3462-1.6792-1.778-1.778-1.778-4.9389 0-3.0621 1.778-4.7413 1.8768-1.778 4.3462-1.778 2.4694 0 4.2474 1.778 1.8768 1.6792 1.8768 4.7413 0 3.1609-1.8768 4.9389-1.778 1.6792-4.2474 1.6792z"/>
    <path d="m412.97 234.27q-10.569 0-16.595-8.4949-6.0254-8.5937-6.0254-24.398 0-15.903 6.0254-24.201 6.0254-8.2973 16.595-8.2973 10.569 0 16.595 8.2973 6.0254 8.2973 6.0254 24.201 0 15.804-6.0254 24.398-6.0254 8.4949-16.595 8.4949zm0-6.5193q6.6181 0 10.767-6.4206 4.2474-6.4206 4.2474-19.953 0-6.8157-1.0866-11.656-1.0866-4.9389-3.1609-8.0998-1.9756-3.2597-4.7413-4.7413t-6.0254-1.4817q-3.2597 0-6.0254 1.4817t-4.8401 4.7413q-1.9756 3.1609-3.0621 8.0998-1.0866 4.8401-1.0866 11.656 0 13.533 4.1487 19.953 4.2474 6.4206 10.866 6.4206zm0-20.447q-2.4694 0-4.3462-1.6792-1.778-1.778-1.778-4.9389 0-3.0621 1.778-4.7413 1.8768-1.778 4.3462-1.778 2.4694 0 4.2474 1.778 1.8768 1.6792 1.8768 4.7413 0 3.1609-1.8768 4.9389-1.778 1.6792-4.2474 1.6792z"/>
    <path d="m472.2 234.27q-10.569 0-16.595-8.4949-6.0254-8.5937-6.0254-24.398 0-15.903 6.0254-24.201 6.0254-8.2973 16.595-8.2973 10.569 0 16.595 8.2973 6.0254 8.2973 6.0254 24.201 0 15.804-6.0254 24.398-6.0254 8.4949-16.595 8.4949zm0-6.5193q6.6181 0 10.767-6.4206 4.2474-6.4206 4.2474-19.953 0-6.8157-1.0866-11.656-1.0866-4.9389-3.1609-8.0998-1.9756-3.2597-4.7413-4.7413t-6.0254-1.4817-6.0254 1.4817q-2.7658 1.4817-4.8401 4.7413-1.9756 3.1609-3.0621 8.0998-1.0866 4.8401-1.0866 11.656 0 13.533 4.1487 19.953 4.2474 6.4206 10.866 6.4206zm0-20.447q-2.4694 0-4.3462-1.6792-1.778-1.778-1.778-4.9389 0-3.0621 1.778-4.7413 1.8768-1.778 4.3462-1.778 2.4694 0 4.2474 1.778 1.8768 1.6792 1.8768 4.7413 0 3.1609-1.8768 4.9389-1.778 1.6792-4.2474 1.6792z"/>
    <path d="m57.604 357.74q-10.569 0-16.595-8.4949-6.0254-8.5937-6.0254-24.398 0-15.903 6.0254-24.201 6.0254-8.2973 16.595-8.2973t16.595 8.2973q6.0254 8.2973 6.0254 24.201 0 15.804-6.0254 24.398-6.0254 8.4949-16.595 8.4949zm0-6.5193q6.6181 0 10.767-6.4206 4.2474-6.4206 4.2474-19.953 0-6.8157-1.0866-11.656-1.0866-4.9389-3.1609-8.0998-1.9756-3.2597-4.7413-4.7413-2.7658-1.4817-6.0254-1.4817t-6.0254 1.4817q-2.7658 1.4817-4.8401 4.7413-1.9756 3.1609-3.0621 8.0998-1.0866 4.8401-1.0866 11.656 0 13.533 4.1487 19.953 4.2474 6.4206 10.866 6.4206zm0-20.447q-2.4694 0-4.3462-1.6792-1.778-1.778-1.778-4.9389 0-3.0621 1.778-4.7413 1.8768-1.778 4.3462-1.778t4.2474 1.778q1.8768 1.6792 1.8768 4.7413 0 3.1609-1.8768 4.9389-1.778 1.6792-4.2474 1.6792z"/>
    <path d="m116.83 357.74q-10.569 0-16.595-8.4949-6.0254-8.5937-6.0254-24.398 0-15.903 6.0254-24.201 6.0254-8.2973 16.595-8.2973 10.569 0 16.595 8.2973 6.0254 8.2973 6.0254 24.201 0 15.804-6.0254 24.398-6.0254 8.4949-16.595 8.4949zm0-6.5193q6.6181 0 10.767-6.4206 4.2474-6.4206 4.2474-19.953 0-6.8157-1.0866-11.656-1.0866-4.9389-3.1609-8.0998-1.9756-3.2597-4.7413-4.7413-2.7658-1.4817-6.0254-1.4817t-6.0254 1.4817q-2.7658 1.4817-4.8401 4.7413-1.9756 3.1609-3.0621 8.0998-1.0866 4.8401-1.0866 11.656 0 13.533 4.1487 19.953 4.2474 6.4206 10.866 6.4206zm0-20.447q-2.4694 0-4.3462-1.6792-1.778-1.778-1.778-4.9389 0-3.0621 1.778-4.7413 1.8768-1.778 4.3462-1.778 2.4694 0 4.2474 1.778 1.8768 1.6792 1.8768 4.7413 0 3.1609-1.8768 4.9389-1.778 1.6792-4.2474 1.6792z"/>

    <path d="m412.97 357.74q-10.569 0-16.595-8.4949-6.0254-8.5937-6.0254-24.398 0-15.903 6.0254-24.201 6.0254-8.2973 16.595-8.2973 10.569 0 16.595 8.2973 6.0254 8.2973 6.0254 24.201 0 15.804-6.0254 24.398-6.0254 8.4949-16.595 8.4949zm0-6.5193q6.6181 0 10.767-6.4206 4.2474-6.4206 4.2474-19.953 0-6.8157-1.0866-11.656-1.0866-4.9389-3.1609-8.0998-1.9756-3.2597-4.7413-4.7413-2.7658-1.4817-6.0254-1.4817-3.2597 0-6.0254 1.4817-2.7658 1.4817-4.8401 4.7413-1.9756 3.1609-3.0621 8.0998-1.0866 4.8401-1.0866 11.656 0 13.533 4.1487 19.953 4.2474 6.4206 10.866 6.4206zm0-20.447q-2.4694 0-4.3462-1.6792-1.778-1.778-1.778-4.9389 0-3.0621 1.778-4.7413 1.8768-1.778 4.3462-1.778 2.4694 0 4.2474 1.778 1.8768 1.6792 1.8768 4.7413 0 3.1609-1.8768 4.9389-1.778 1.6792-4.2474 1.6792z"/>
    <path d="m472.2 357.74q-10.569 0-16.595-8.4949-6.0254-8.5937-6.0254-24.398 0-15.903 6.0254-24.201 6.0254-8.2973 16.595-8.2973 10.569 0 16.595 8.2973 6.0254 8.2973 6.0254 24.201 0 15.804-6.0254 24.398-6.0254 8.4949-16.595 8.4949zm0-6.5193q6.6181 0 10.767-6.4206 4.2474-6.4206 4.2474-19.953 0-6.8157-1.0866-11.656-1.0866-4.9389-3.1609-8.0998-1.9756-3.2597-4.7413-4.7413-2.7658-1.4817-6.0254-1.4817t-6.0254 1.4817q-2.7658 1.4817-4.8401 4.7413-1.9756 3.1609-3.0621 8.0998-1.0866 4.8401-1.0866 11.656 0 13.533 4.1487 19.953 4.2474 6.4206 10.866 6.4206zm0-20.447q-2.4694 0-4.3462-1.6792-1.778-1.778-1.778-4.9389 0-3.0621 1.778-4.7413 1.8768-1.778 4.3462-1.778 2.4694 0 4.2474 1.778 1.8768 1.6792 1.8768 4.7413 0 3.1609-1.8768 4.9389-1.778 1.6792-4.2474 1.6792z"/>
   </g>

   <!-- 37 -->
   <g fill="#729fcf">
    <path d="m234 357.74q-8.1986 0-13.73-2.667-5.5316-2.7658-8.9888-6.223l4.1487-5.334q3.1609 2.9633 7.5071 5.2352 4.445 2.2719 10.569 2.2719 3.2597 0 6.0254-0.79023 2.7658-0.889 4.7413-2.3707 2.0743-1.4817 3.1609-3.556 1.1853-2.1731 1.1853-4.8401 0-2.7658-1.2841-5.0377-1.1853-2.3707-3.9511-4.0499-2.7658-1.6792-7.112-2.5682-4.3462-0.889-10.569-0.889v-6.223q5.6303 0 9.4827-0.889 3.9511-0.889 6.4206-2.4694 2.4694-1.5804 3.556-3.7536 1.1853-2.1731 1.1853-4.6426 0-4.6426-3.556-7.3096-3.4572-2.667-9.2851-2.667-4.445 0-8.3961 1.778-3.9511 1.778-7.112 4.6426l-4.3462-5.1364q3.9511-3.4572 8.9888-5.6303 5.0377-2.2719 11.162-2.2719 4.445 0 8.1986 1.0866 3.8523 1.0866 6.6181 3.1609 2.8646 1.9756 4.445 4.9389 1.5804 2.9633 1.5804 6.8157 0 5.7291-3.7536 9.3839-3.7536 3.6548-9.6802 5.6303v0.39511q3.1609 0.69145 5.9267 2.0743 2.8646 1.2841 5.0377 3.3584 2.1731 1.9756 3.3584 4.6426 1.2841 2.667 1.2841 5.9267 0 4.1487-1.778 7.5071-1.778 3.3584-4.9389 5.7291-3.0621 2.2719-7.2108 3.556-4.1487 1.1853-8.89 1.1853z"/>
    <path d="m287.21 356.56q0.39511-8.9888 1.6792-16.298 1.2841-7.4083 3.7536-14.026 2.4694-6.6181 6.223-12.841 3.8523-6.223 9.2851-12.841h-36.35v-7.0132h45.635v5.0377q-6.223 7.112-10.273 13.631-4.0499 6.5193-6.5193 13.335-2.4694 6.7169-3.556 14.224-1.0866 7.5071-1.3829 16.792z"/>
   </g>


   <!-- @ -->
   <path d="m61.456 494.55q-5.9267 0-11.458-2.3707-5.4328-2.3707-9.6802-7.3096-4.2474-4.8401-6.8157-12.248-2.4694-7.5071-2.4694-17.582t2.3707-17.286q2.3707-7.3096 6.4206-12.051 4.0499-4.7413 9.3839-7.0132 5.4328-2.2719 11.458-2.2719 5.6303 0 9.6802 1.8768 4.1487 1.8768 6.7169 5.1364 2.667 3.2597 3.9511 7.7047 1.2841 4.3462 1.2841 9.4827v29.535h-7.7047l-1.0866-5.0377h-0.39511q-1.8768 2.7658-4.8401 4.5438-2.9633 1.6792-7.0132 1.6792-2.667 0-5.0377-1.0866-2.2719-1.0866-3.9511-2.9633-1.6792-1.8768-2.667-4.3462-0.889-2.5682-0.889-5.4328 0-3.9511 1.6792-6.8157 1.778-2.9633 4.9389-4.9389 3.2597-2.0743 7.8034-3.2597 4.5438-1.2841 10.174-1.9756v-1.5804q0-2.7658-0.79022-5.2352-0.79022-2.4694-2.3707-4.3462-1.5804-1.9756-4.0499-3.0621-2.4694-1.1853-5.7291-1.1853-3.4572 0-6.9144 1.6792t-6.223 5.334q-2.7658 3.6548-4.5438 9.4827-1.6792 5.7291-1.6792 13.829 0 7.7047 1.778 13.434 1.778 5.6303 4.6426 9.4827 2.9633 3.7536 6.7169 5.5316 3.7536 1.8768 7.8034 1.8768 4.445 0 7.3096-1.0866 2.9633-0.98778 5.8279-2.667l4.1487 7.2108q-4.1487 2.4694-8.2973 3.8523-4.1487 1.4817-9.4827 1.4817zm3.0621-32.695q2.1731 0 3.8523-0.889 1.778-0.98778 3.4572-2.667v-9.0876q-6.9144 1.0866-9.779 2.8646-2.7658 1.778-2.7658 5.0377 0 2.2719 1.3829 3.556 1.3829 1.1853 3.8523 1.1853z" fill="#b70000"/>

   <!-- ric3 -->
   <g fill="#ef2929" stroke-width=".26458">
    <path d="m120.59 481.22q-3.4572 0-6.9144-1.6792-3.3584-1.6792-6.4206-4.8401h-0.39511l-1.1853 5.334h-11.359v-69.243h14.52v16.99l-0.49389 7.7047h0.29633q2.7658-2.667 6.3218-4.1487 3.556-1.4817 7.112-1.4817 4.5438 0 8.1986 1.778 3.7536 1.778 6.223 5.0377 2.5682 3.1609 3.9511 7.8034 1.3829 4.5438 1.3829 10.174 0 6.3218-1.778 11.261t-4.7413 8.3961q-2.9633 3.3584-6.8157 5.1364-3.7536 1.778-7.9022 1.778zm-3.2597-11.853q4.0499 0 6.8157-3.3584 2.7658-3.4572 2.7658-11.063 0-13.236-8.9888-13.236-4.6426 0-9.0876 4.5438v19.854q2.0743 1.778 4.2474 2.5682 2.2719 0.69144 4.2474 0.69144z"/>
    <path d="m217.11 480.03v-48.994h11.853l1.1853 10.668h0.29634q3.6548-6.0254 8.7912-8.89 5.1364-2.9633 11.063-2.9633 3.2597 0 5.2352 0.49389 2.0743 0.49389 4.2474 1.4817l-2.9633 12.15q-2.2719-0.69145-4.1487-0.98778-1.778-0.39511-4.5438-0.39511-4.5438 0-8.9888 2.667-4.3462 2.667-7.5071 9.2851v25.485z"/>
    <path d="m292.34 480.03v-37.634h-19.657v-11.359h34.177v48.994zm6.6181-56.698q-4.2474 0-7.0132-2.3707-2.667-2.3707-2.667-6.4206t2.667-6.5193q2.7658-2.5682 7.0132-2.5682 4.2474 0 6.9144 2.5682 2.7658 2.4694 2.7658 6.5193t-2.7658 6.4206q-2.667 2.3707-6.9144 2.3707z"/>
    <path d="m417.22 481.22q-5.8279 0-10.767-1.6792-4.9389-1.778-8.6924-5.0377-3.6548-3.2597-5.7291-8.001-2.0743-4.8401-2.0743-10.964t2.2719-10.866q2.3707-4.8401 6.223-8.0998 3.9511-3.2597 9.0876-4.9389 5.1364-1.778 10.767-1.778 5.8279 0 10.47 1.8768 4.7413 1.8768 7.9022 4.7413l-6.7169 8.9888q-5.4328-3.8523-10.866-3.8523-6.3218 0-10.273 3.7536-3.9511 3.7536-3.9511 10.174t3.7536 10.174q3.8523 3.7536 9.9766 3.7536 3.8523 0 7.0132-1.3829 3.2597-1.3829 5.9267-3.2597l5.8279 9.1863q-4.445 3.7536-9.779 5.5316-5.334 1.6792-10.372 1.6792z"/>
    <path d="m470.13 481.22q-8.0998 0-13.928-2.3707-5.8279-2.4694-9.4827-6.5193l6.7169-9.1863q3.1609 2.7658 7.0132 4.5438 3.9511 1.778 8.2973 1.778 5.1364 0 8.3961-1.8768 3.3584-1.9756 3.3584-5.5316 0-2.0743-0.889-3.7536-0.889-1.6792-3.0621-2.7658-2.1731-1.1853-5.8279-1.778-3.6548-0.69145-9.1863-0.69145v-10.273q9.2851 0 13.039-2.2719 3.8523-2.3707 3.8523-6.1242 0-3.2597-2.4694-5.0377-2.4694-1.8768-6.8157-1.8768-3.7536 0-6.9144 1.4817t-6.4206 4.0499l-7.3096-8.89q4.6426-3.7536 9.8778-5.8279 5.334-2.1731 11.458-2.1731 5.1364 0 9.3839 1.1853 4.2474 1.0866 7.3096 3.3584 3.0621 2.1731 4.7413 5.334 1.6792 3.1609 1.6792 7.3096 0 4.9389-3.1609 8.3961-3.1609 3.3584-8.7912 5.5316v0.39511q5.9267 1.5804 9.9766 5.4328 4.0499 3.7536 4.0499 9.8778 0 4.3462-2.0743 7.8034-1.9756 3.3584-5.4328 5.7291-3.3584 2.2719-7.9022 3.556-4.5438 1.1853-9.4827 1.1853z"/>
   </g>
  </g>
 </g>
</svg>
