<?xml version="1.0" encoding="UTF-8" standalone="no"?>
<svg
   xmlns:dc="http://purl.org/dc/elements/1.1/"
   xmlns:cc="http://creativecommons.org/ns#"
   xmlns:rdf="http://www.w3.org/1999/02/22-rdf-syntax-ns#"
   xmlns:svg="http://www.w3.org/2000/svg"
   xmlns="http://www.w3.org/2000/svg"
   xmlns:sodipodi="http://sodipodi.sourceforge.net/DTD/sodipodi-0.dtd"
   xmlns:inkscape="http://www.inkscape.org/namespaces/inkscape"
   width="2000"
   height="2000"
   viewBox="0 0 529.16665 529.16668"
   version="1.1"
   id="svg16"
   inkscape:version="1.0.2 (e86c8708, 2021-01-15)"
   sodipodi:docname="favicon.svg">
  <title
     id="title30">bric3.github.io - blog.arkey.fr</title>
  <defs
     id="defs10">
    <rect
       x="210.86422"
       y="190.80314"
       width="86.039736"
       height="40.567958"
       id="rect1049" />
    <rect
       x="486.07738"
       y="490.61309"
       width="24.190476"
       height="26.458333"
       id="rect899" />
    <rect
       x="185.96429"
       y="106.58929"
       width="76.35119"
       height="57.452381"
       id="rect893" />
    <rect
       x="210.86422"
       y="190.80314"
       width="86.039736"
       height="40.567958"
       id="rect1174" />
  </defs>
  <sodipodi:namedview
     id="base"
     pagecolor="#ffffff"
     bordercolor="#666666"
     borderopacity="1.0"
     inkscape:pageopacity="0.05098039"
     inkscape:pageshadow="2"
     inkscape:zoom="0.5935"
     inkscape:cx="1094.9508"
     inkscape:cy="1000"
     inkscape:document-units="px"
     inkscape:current-layer="g1172"
     inkscape:document-rotation="0"
     showgrid="false"
     units="px"
     inkscape:pagecheckerboard="true"
     borderlayer="false"
     inkscape:window-width="2132"
     inkscape:window-height="1353"
     inkscape:window-x="859"
     inkscape:window-y="393"
     inkscape:window-maximized="0" />
  <metadata
     id="metadata13">
    <rdf:RDF>
      <cc:Work
         rdf:about="">
        <dc:format>image/svg+xml</dc:format>
        <dc:type
           rdf:resource="http://purl.org/dc/dcmitype/StillImage" />
        <dc:title>bric3.github.io - blog.arkey.fr</dc:title>
        <dc:creator>
          <cc:Agent>
            <dc:title>Brice Dutheil</dc:title>
          </cc:Agent>
        </dc:creator>
      </cc:Work>
    </rdf:RDF>
  </metadata>
  <g
     inkscape:label="black square"
     inkscape:groupmode="layer"
     id="layer1">
    <rect
       style="fill:#000000;fill-rule:evenodd;stroke-width:0.264583;image-rendering:auto;fill-opacity:0.68548387"
       id="rect32"
       width="528.41071"
       height="528.41077"
       x="0.75595248"
       y="1.5119048"
       ry="49.136906" />
    <text
       xml:space="preserve"
       id="text891"
       style="fill:black;fill-opacity:1;line-height:1.25;stroke:none;font-family:sans-serif;font-style:normal;font-weight:normal;font-size:10.58333329999999961px;white-space:pre;shape-inside:url(#rect893);" />
    <text
       xml:space="preserve"
       id="text897"
       style="fill:black;fill-opacity:1;line-height:1.25;stroke:none;font-family:sans-serif;font-style:normal;font-weight:normal;font-size:10.58333329999999961px;white-space:pre;shape-inside:url(#rect899);" />
    <path
       style="opacity:1;fill:#000000;fill-opacity:0.527397;stroke-width:1.68492"
       d="M 166.80708,2000.6443 C 135.07784,1997.0142 98.02666,1981.2359 72.099387,1960.3134 36.064414,1931.234 11.210131,1886.2591 5.1085456,1839.0901 2.875613,1821.8283 2.875613,186.59636 5.1085456,169.33446 9.0984868,138.48981 22.682002,104.62493 40.58998,80.876158 72.232659,38.913028 119.67539,12.512472 172.39862,7.5283274 185.4339,6.2960475 444.82903,5.9206859 1014.3218,6.3100096 c 752.9808,0.5147619 824.0988,0.7962108 835.0054,3.3045252 37.8337,8.7010532 65.8202,23.2779272 91.5018,47.6590122 35.0857,33.309243 53.3533,71.976473 57.4687,121.645003 2.2181,26.77048 2.2305,1623.10685 0.017,1650.90455 -3.8656,48.4541 -23.0925,88.864 -57.9769,121.8524 -29.2204,27.6322 -65.8285,44.5692 -106.0193,49.0507 -19.8395,2.2123 -1648.15491,2.1323 -1667.50728,-0.083 z"
       id="path1045"
       transform="scale(0.26458333)" />
  </g>
  <g
     inkscape:groupmode="layer"
     id="layer2"
     inkscape:label="text-source"
     style="display:none"
     sodipodi:insensitive="true">
    <text
       xml:space="preserve"
       style="font-style:normal;font-weight:normal;font-size:10.5833px;line-height:1.25;font-family:sans-serif;fill:#000000;fill-opacity:1;stroke:none;stroke-width:0.264583"
       x="27.970242"
       y="109.6131"
       id="text883"><tspan
         sodipodi:role="line"
         id="tspan881"
         x="27.970242"
         y="109.6131"
         style="font-style:normal;font-variant:normal;font-weight:normal;font-stretch:normal;font-size:98.7778px;font-family:'SauceCodePro Nerd Font Mono';-inkscape-font-specification:'SauceCodePro Nerd Font Mono, Normal';font-variant-ligatures:normal;font-variant-caps:normal;font-variant-numeric:normal;font-variant-east-asian:normal;opacity:1;fill:#ffdd55;fill-opacity:0.527397;stroke-width:0.264583">CA FE BA</tspan><tspan
         sodipodi:role="line"
         x="27.970242"
         y="233.08536"
         style="font-style:normal;font-variant:normal;font-weight:normal;font-stretch:normal;font-size:98.7778px;font-family:'SauceCodePro Nerd Font Mono';-inkscape-font-specification:'SauceCodePro Nerd Font Mono, Normal';font-variant-ligatures:normal;font-variant-caps:normal;font-variant-numeric:normal;font-variant-east-asian:normal;stroke-width:0.264583"
         id="tspan885"><tspan
   style="font-style:normal;font-variant:normal;font-weight:normal;font-stretch:normal;font-size:98.7778px;font-family:'SauceCodePro Nerd Font Mono';-inkscape-font-specification:'SauceCodePro Nerd Font Mono, Normal';font-variant-ligatures:normal;font-variant-caps:normal;font-variant-numeric:normal;font-variant-east-asian:normal;opacity:1;fill:#ffdd55;fill-opacity:0.527397"
   id="tspan989">BE</tspan> <tspan
   style="font-style:normal;font-variant:normal;font-weight:normal;font-stretch:normal;font-size:98.7778px;font-family:'SauceCodePro Nerd Font Mono';-inkscape-font-specification:'SauceCodePro Nerd Font Mono, Normal';font-variant-ligatures:normal;font-variant-caps:normal;font-variant-numeric:normal;font-variant-east-asian:normal;fill:#555753"
   id="tspan1053">00 00</tspan></tspan><tspan
         sodipodi:role="line"
         x="27.970242"
         y="356.55762"
         style="font-style:normal;font-variant:normal;font-weight:normal;font-stretch:normal;font-size:98.7778px;font-family:'SauceCodePro Nerd Font Mono';-inkscape-font-specification:'SauceCodePro Nerd Font Mono, Normal';font-variant-ligatures:normal;font-variant-caps:normal;font-variant-numeric:normal;font-variant-east-asian:normal;stroke-width:0.264583"
         id="tspan887"><tspan
   style="font-style:normal;font-variant:normal;font-weight:normal;font-stretch:normal;font-size:98.7778px;font-family:'SauceCodePro Nerd Font Mono';-inkscape-font-specification:'SauceCodePro Nerd Font Mono, Normal';font-variant-ligatures:normal;font-variant-caps:normal;font-variant-numeric:normal;font-variant-east-asian:normal;fill:#555753"
   id="tspan1055">00</tspan> <tspan
   style="font-style:normal;font-variant:normal;font-weight:normal;font-stretch:normal;font-size:98.7778px;font-family:'SauceCodePro Nerd Font Mono';-inkscape-font-specification:'SauceCodePro Nerd Font Mono, Normal';font-variant-ligatures:normal;font-variant-caps:normal;font-variant-numeric:normal;font-variant-east-asian:normal;fill:#729fcf"
   id="tspan1033">37</tspan> <tspan
   style="font-style:normal;font-variant:normal;font-weight:normal;font-stretch:normal;font-size:98.7778px;font-family:'SauceCodePro Nerd Font Mono';-inkscape-font-specification:'SauceCodePro Nerd Font Mono, Normal';font-variant-ligatures:normal;font-variant-caps:normal;font-variant-numeric:normal;font-variant-east-asian:normal;fill:#555753"
   id="tspan1059">00</tspan></tspan><tspan
         sodipodi:role="line"
         x="27.970242"
         y="480.02985"
         style="font-style:normal;font-variant:normal;font-weight:bold;font-stretch:normal;font-size:98.7778px;font-family:'SauceCodePro Nerd Font Mono';-inkscape-font-specification:'SauceCodePro Nerd Font Mono, Normal';font-variant-ligatures:normal;font-variant-caps:normal;font-variant-numeric:normal;font-variant-east-asian:normal;fill:#ef2929;stroke-width:0.264583"
         id="tspan889"><tspan
   style="fill:#b70000"
   id="tspan1085">@</tspan>b ri c3</tspan></text>
    <text
       xml:space="preserve"
       id="text1047"
       style="font-style:normal;font-weight:normal;font-size:10.58329999999999949px;line-height:1.25;font-family:sans-serif;white-space:pre;shape-inside:url(#rect1049);fill:#000000;fill-opacity:1;stroke:none;" />
  </g>
  <g
     inkscape:groupmode="layer"
     id="g1172"
     inkscape:label="text to path"
     style="display:inline">
    <g
       aria-label="CA FE BA
BE 00 00
00 37 00
@b ri c3"
       id="text1166"
       style="font-style:normal;font-weight:normal;font-size:10.5833px;line-height:1.25;font-family:sans-serif;fill:#000000;fill-opacity:1;stroke:none;stroke-width:0.264583">
      <path
         d="m 62.64125,110.79843 q -6.025446,0 -11.161892,-2.27189 -5.136445,-2.27189 -8.98878,-6.51933 -3.753556,-4.346226 -5.926668,-10.569227 -2.173111,-6.32178 -2.173111,-14.224004 0,-7.803446 2.173111,-14.026448 2.173112,-6.223001 6.025446,-10.569224 3.852334,-4.346224 9.186336,-6.618113 5.334001,-2.370667 11.65578,-2.370667 5.827891,0 10.272892,2.370667 4.543779,2.370667 7.408335,5.531557 l -4.642557,5.235223 q -2.568223,-2.667 -5.729112,-4.247445 -3.16089,-1.679223 -7.309558,-1.679223 -4.642556,0 -8.494891,1.876778 -3.753556,1.778001 -6.420557,5.235224 -2.667,3.358445 -4.148667,8.198557 -1.481667,4.840113 -1.481667,10.865559 0,6.124223 1.481667,11.063113 1.481667,4.840113 4.148667,8.297336 2.667001,3.457223 6.420557,5.333997 3.852335,1.87678 8.494891,1.87678 4.445001,0 7.902224,-1.87678 3.556001,-1.876774 6.716891,-5.333997 l 4.642557,5.037667 q -3.852335,4.445 -8.692447,6.91445 -4.840112,2.46944 -11.359447,2.46944 z"
         style="font-style:normal;font-variant:normal;font-weight:normal;font-stretch:normal;font-size:98.7778px;font-family:'SauceCodePro Nerd Font Mono';-inkscape-font-specification:'SauceCodePro Nerd Font Mono, Normal';font-variant-ligatures:normal;font-variant-caps:normal;font-variant-numeric:normal;font-variant-east-asian:normal;opacity:1;fill:#ffdd55;fill-opacity:0.527397;stroke-width:0.264583"
         id="path1176" />
      <path
         d="m 110.11479,73.361645 -3.06211,9.87778 h 19.36044 l -3.06211,-9.87778 q -1.67922,-5.432779 -3.35844,-10.76678 -1.58045,-5.432779 -3.06211,-11.063114 h -0.39512 q -1.58044,5.630335 -3.16089,11.063114 -1.58044,5.334001 -3.25966,10.76678 z M 90.359227,109.6131 112.18912,44.81486 h 9.28511 l 21.8299,64.79824 h -8.69245 l -6.12422,-19.755562 h -23.50912 l -6.223,19.755562 z"
         style="font-style:normal;font-variant:normal;font-weight:normal;font-stretch:normal;font-size:98.7778px;font-family:'SauceCodePro Nerd Font Mono';-inkscape-font-specification:'SauceCodePro Nerd Font Mono, Normal';font-variant-ligatures:normal;font-variant-caps:normal;font-variant-numeric:normal;font-variant-east-asian:normal;opacity:1;fill:#ffdd55;fill-opacity:0.527397;stroke-width:0.264583"
         id="path1178" />
      <path
         d="M 218.79198,109.6131 V 44.81486 h 39.80746 v 6.914446 h -31.51012 v 21.928672 h 26.67001 v 6.914446 H 227.08932 V 109.6131 Z"
         style="font-style:normal;font-variant:normal;font-weight:normal;font-stretch:normal;font-size:98.7778px;font-family:'SauceCodePro Nerd Font Mono';-inkscape-font-specification:'SauceCodePro Nerd Font Mono, Normal';font-variant-ligatures:normal;font-variant-caps:normal;font-variant-numeric:normal;font-variant-east-asian:normal;opacity:1;fill:#ffdd55;fill-opacity:0.527397;stroke-width:0.264583"
         id="path1180" />
      <path
         d="M 276.14329,109.6131 V 44.81486 h 40.10379 v 6.914446 h -31.80645 v 20.348228 h 26.86756 v 7.013223 h -26.86756 v 23.509113 h 32.79423 v 7.01323 z"
         style="font-style:normal;font-variant:normal;font-weight:normal;font-stretch:normal;font-size:98.7778px;font-family:'SauceCodePro Nerd Font Mono';-inkscape-font-specification:'SauceCodePro Nerd Font Mono, Normal';font-variant-ligatures:normal;font-variant-caps:normal;font-variant-numeric:normal;font-variant-east-asian:normal;opacity:1;fill:#ffdd55;fill-opacity:0.527397;stroke-width:0.264583"
         id="path1182" />
      <path
         d="M 393.11784,109.6131 V 44.81486 h 18.37267 q 4.93889,0 8.98878,0.889001 4.14866,0.889 7.01322,2.765778 2.96333,1.876778 4.54378,4.93889 1.67922,2.963334 1.67922,7.21078 0,4.840112 -2.76578,8.791224 -2.76578,3.852334 -8.59367,5.334001 v 0.395111 q 7.11201,1.086556 11.06312,4.93889 3.95111,3.852335 3.95111,10.569225 0,4.741335 -1.778,8.297336 -1.778,3.556004 -5.03767,5.926664 -3.16089,2.37067 -7.70467,3.556 -4.445,1.18534 -9.87778,1.18534 z m 8.19855,-37.535566 h 8.79123 q 8.29733,0 11.85333,-2.667001 3.65478,-2.667001 3.65478,-8.09978 0,-5.334001 -3.85233,-7.408335 -3.75356,-2.173112 -11.26067,-2.173112 h -9.18634 z m 0,30.621116 h 10.47045 q 8.39611,0 12.93989,-2.864554 4.54378,-2.963334 4.54378,-9.581447 0,-6.025446 -4.445,-8.593669 -4.445,-2.667 -13.03867,-2.667 h -10.47045 z"
         style="font-style:normal;font-variant:normal;font-weight:normal;font-stretch:normal;font-size:98.7778px;font-family:'SauceCodePro Nerd Font Mono';-inkscape-font-specification:'SauceCodePro Nerd Font Mono, Normal';font-variant-ligatures:normal;font-variant-caps:normal;font-variant-numeric:normal;font-variant-east-asian:normal;opacity:1;fill:#ffdd55;fill-opacity:0.527397;stroke-width:0.264583"
         id="path1184" />
      <path
         d="m 465.48337,73.361645 -3.06211,9.87778 h 19.36045 l -3.06211,-9.87778 q -1.67923,-5.432779 -3.35845,-10.76678 -1.58044,-5.432779 -3.06211,-11.063114 h -0.39511 q -1.58045,5.630335 -3.16089,11.063114 -1.58045,5.334001 -3.25967,10.76678 z m -19.75556,36.251455 21.8299,-64.79824 h 9.28511 l 21.82989,64.79824 h -8.69244 l -6.12423,-19.755562 h -23.50911 l -6.22301,19.755562 z"
         style="font-style:normal;font-variant:normal;font-weight:normal;font-stretch:normal;font-size:98.7778px;font-family:'SauceCodePro Nerd Font Mono';-inkscape-font-specification:'SauceCodePro Nerd Font Mono, Normal';font-variant-ligatures:normal;font-variant-caps:normal;font-variant-numeric:normal;font-variant-east-asian:normal;opacity:1;fill:#ffdd55;fill-opacity:0.527397;stroke-width:0.264583"
         id="path1186" />
      <path
         d="m 37.749244,233.08535 v -64.79824 h 18.372671 q 4.93889,0 8.98878,0.889 4.148668,0.889 7.013224,2.76578 2.963334,1.87678 4.543779,4.93889 1.679222,2.96334 1.679222,7.21078 0,4.84011 -2.765778,8.79122 -2.765779,3.85234 -8.593669,5.33401 v 0.39511 q 7.112002,1.08655 11.063114,4.93889 3.951112,3.85233 3.951112,10.56922 0,4.74134 -1.778,8.29734 -1.778001,3.556 -5.037668,5.92667 -3.16089,2.37066 -7.704669,3.556 -4.445001,1.18533 -9.87778,1.18533 z m 8.198557,-37.53556 h 8.791225 q 8.297335,0 11.853336,-2.66701 3.654779,-2.667 3.654779,-8.09977 0,-5.33401 -3.852335,-7.40834 -3.753556,-2.17311 -11.260669,-2.17311 h -9.186336 z m 0,30.62111 h 10.470447 q 8.396114,0 12.939892,-2.86455 4.543779,-2.96334 4.543779,-9.58145 0,-6.02544 -4.445001,-8.59367 -4.445001,-2.667 -13.03867,-2.667 H 45.947801 Z"
         style="font-style:normal;font-variant:normal;font-weight:normal;font-stretch:normal;font-size:98.7778px;font-family:'SauceCodePro Nerd Font Mono';-inkscape-font-specification:'SauceCodePro Nerd Font Mono, Normal';font-variant-ligatures:normal;font-variant-caps:normal;font-variant-numeric:normal;font-variant-east-asian:normal;opacity:1;fill:#ffdd55;fill-opacity:0.527397"
         id="path1188" />
      <path
         d="m 98.459007,233.08535 v -64.79824 h 40.103783 v 6.91445 h -31.80645 v 20.34823 h 26.86756 v 7.01322 h -26.86756 v 23.50912 h 32.79423 v 7.01322 z"
         style="font-style:normal;font-variant:normal;font-weight:normal;font-stretch:normal;font-size:98.7778px;font-family:'SauceCodePro Nerd Font Mono';-inkscape-font-specification:'SauceCodePro Nerd Font Mono, Normal';font-variant-ligatures:normal;font-variant-caps:normal;font-variant-numeric:normal;font-variant-east-asian:normal;opacity:1;fill:#ffdd55;fill-opacity:0.527397"
         id="path1190" />
      <path
         d="m 235.28788,234.27068 q -10.56923,0 -16.59467,-8.49489 -6.02545,-8.59367 -6.02545,-24.39811 0,-15.90323 6.02545,-24.20057 6.02544,-8.29733 16.59467,-8.29733 10.56922,0 16.59467,8.29733 6.02544,8.29734 6.02544,24.20057 0,15.80444 -6.02544,24.39811 -6.02545,8.49489 -16.59467,8.49489 z m 0,-6.51933 q 6.61811,0 10.76678,-6.42056 4.24744,-6.42056 4.24744,-19.95311 0,-6.81567 -1.08655,-11.65578 -1.08656,-4.93889 -3.16089,-8.09978 -1.97556,-3.25967 -4.74134,-4.74134 -2.76577,-1.48167 -6.02544,-1.48167 -3.25967,0 -6.02545,1.48167 -2.76578,1.48167 -4.84011,4.74134 -1.97556,3.16089 -3.06211,8.09978 -1.08656,4.84011 -1.08656,11.65578 0,13.53255 4.14867,19.95311 4.24744,6.42056 10.86556,6.42056 z m 0,-20.44701 q -2.46945,0 -4.34623,-1.67922 -1.778,-1.778 -1.778,-4.93889 0,-3.06211 1.778,-4.74133 1.87678,-1.778 4.34623,-1.778 2.46944,0 4.24744,1.778 1.87678,1.67922 1.87678,4.74133 0,3.16089 -1.87678,4.93889 -1.778,1.67922 -4.24744,1.67922 z"
         style="font-style:normal;font-variant:normal;font-weight:normal;font-stretch:normal;font-size:98.7778px;font-family:'SauceCodePro Nerd Font Mono';-inkscape-font-specification:'SauceCodePro Nerd Font Mono, Normal';font-variant-ligatures:normal;font-variant-caps:normal;font-variant-numeric:normal;font-variant-east-asian:normal;fill:#555753"
         id="path1192" />
      <path
         d="m 294.51597,234.27068 q -10.56923,0 -16.59467,-8.49489 -6.02545,-8.59367 -6.02545,-24.39811 0,-15.90323 6.02545,-24.20057 6.02544,-8.29733 16.59467,-8.29733 10.56922,0 16.59467,8.29733 6.02544,8.29734 6.02544,24.20057 0,15.80444 -6.02544,24.39811 -6.02545,8.49489 -16.59467,8.49489 z m 0,-6.51933 q 6.61811,0 10.76678,-6.42056 4.24744,-6.42056 4.24744,-19.95311 0,-6.81567 -1.08655,-11.65578 -1.08656,-4.93889 -3.16089,-8.09978 -1.97556,-3.25967 -4.74134,-4.74134 -2.76578,-1.48167 -6.02544,-1.48167 -3.25967,0 -6.02545,1.48167 -2.76578,1.48167 -4.84011,4.74134 -1.97556,3.16089 -3.06211,8.09978 -1.08656,4.84011 -1.08656,11.65578 0,13.53255 4.14867,19.95311 4.24744,6.42056 10.86556,6.42056 z m 0,-20.44701 q -2.46945,0 -4.34623,-1.67922 -1.778,-1.778 -1.778,-4.93889 0,-3.06211 1.778,-4.74133 1.87678,-1.778 4.34623,-1.778 2.46944,0 4.24744,1.778 1.87678,1.67922 1.87678,4.74133 0,3.16089 -1.87678,4.93889 -1.778,1.67922 -4.24744,1.67922 z"
         style="font-style:normal;font-variant:normal;font-weight:normal;font-stretch:normal;font-size:98.7778px;font-family:'SauceCodePro Nerd Font Mono';-inkscape-font-specification:'SauceCodePro Nerd Font Mono, Normal';font-variant-ligatures:normal;font-variant-caps:normal;font-variant-numeric:normal;font-variant-east-asian:normal;fill:#555753"
         id="path1194" />
      <path
         d="m 412.97217,234.27068 q -10.56922,0 -16.59467,-8.49489 -6.02544,-8.59367 -6.02544,-24.39811 0,-15.90323 6.02544,-24.20057 6.02545,-8.29733 16.59467,-8.29733 10.56923,0 16.59467,8.29733 6.02545,8.29734 6.02545,24.20057 0,15.80444 -6.02545,24.39811 -6.02544,8.49489 -16.59467,8.49489 z m 0,-6.51933 q 6.61812,0 10.76678,-6.42056 4.24745,-6.42056 4.24745,-19.95311 0,-6.81567 -1.08656,-11.65578 -1.08655,-4.93889 -3.16089,-8.09978 -1.97555,-3.25967 -4.74133,-4.74134 -2.76578,-1.48167 -6.02545,-1.48167 -3.25966,0 -6.02544,1.48167 -2.76578,1.48167 -4.84011,4.74134 -1.97556,3.16089 -3.06212,8.09978 -1.08655,4.84011 -1.08655,11.65578 0,13.53255 4.14867,19.95311 4.24744,6.42056 10.86555,6.42056 z m 0,-20.44701 q -2.46944,0 -4.34622,-1.67922 -1.778,-1.778 -1.778,-4.93889 0,-3.06211 1.778,-4.74133 1.87678,-1.778 4.34622,-1.778 2.46945,0 4.24745,1.778 1.87678,1.67922 1.87678,4.74133 0,3.16089 -1.87678,4.93889 -1.778,1.67922 -4.24745,1.67922 z"
         style="font-style:normal;font-variant:normal;font-weight:normal;font-stretch:normal;font-size:98.7778px;font-family:'SauceCodePro Nerd Font Mono';-inkscape-font-specification:'SauceCodePro Nerd Font Mono, Normal';font-variant-ligatures:normal;font-variant-caps:normal;font-variant-numeric:normal;font-variant-east-asian:normal;fill:#555753"
         id="path1196" />
      <path
         d="m 472.20026,234.27068 q -10.56922,0 -16.59467,-8.49489 -6.02544,-8.59367 -6.02544,-24.39811 0,-15.90323 6.02544,-24.20057 6.02545,-8.29733 16.59467,-8.29733 10.56923,0 16.59467,8.29733 6.02545,8.29734 6.02545,24.20057 0,15.80444 -6.02545,24.39811 -6.02544,8.49489 -16.59467,8.49489 z m 0,-6.51933 q 6.61811,0 10.76678,-6.42056 4.24745,-6.42056 4.24745,-19.95311 0,-6.81567 -1.08656,-11.65578 -1.08655,-4.93889 -3.16089,-8.09978 -1.97555,-3.25967 -4.74133,-4.74134 -2.76578,-1.48167 -6.02545,-1.48167 -3.25967,0 -6.02544,1.48167 -2.76578,1.48167 -4.84012,4.74134 -1.97555,3.16089 -3.06211,8.09978 -1.08655,4.84011 -1.08655,11.65578 0,13.53255 4.14866,19.95311 4.24745,6.42056 10.86556,6.42056 z m 0,-20.44701 q -2.46944,0 -4.34622,-1.67922 -1.778,-1.778 -1.778,-4.93889 0,-3.06211 1.778,-4.74133 1.87678,-1.778 4.34622,-1.778 2.46945,0 4.24745,1.778 1.87678,1.67922 1.87678,4.74133 0,3.16089 -1.87678,4.93889 -1.778,1.67922 -4.24745,1.67922 z"
         style="font-style:normal;font-variant:normal;font-weight:normal;font-stretch:normal;font-size:98.7778px;font-family:'SauceCodePro Nerd Font Mono';-inkscape-font-specification:'SauceCodePro Nerd Font Mono, Normal';font-variant-ligatures:normal;font-variant-caps:normal;font-variant-numeric:normal;font-variant-east-asian:normal;fill:#555753"
         id="path1198" />
      <path
         d="m 57.603582,357.74294 q -10.569225,0 -16.594671,-8.4949 -6.025446,-8.59366 -6.025446,-24.39811 0,-15.90323 6.025446,-24.20056 6.025446,-8.29734 16.594671,-8.29734 10.569225,0 16.594671,8.29734 6.025446,8.29733 6.025446,24.20056 0,15.80445 -6.025446,24.39811 -6.025446,8.4949 -16.594671,8.4949 z m 0,-6.51934 q 6.618113,0 10.76678,-6.42056 4.247446,-6.42055 4.247446,-19.95311 0,-6.81567 -1.086556,-11.65578 -1.086556,-4.93889 -3.16089,-8.09978 -1.975556,-3.25967 -4.741334,-4.74134 -2.765779,-1.48166 -6.025446,-1.48166 -3.259667,0 -6.025446,1.48166 -2.765778,1.48167 -4.840112,4.74134 -1.975556,3.16089 -3.062112,8.09978 -1.086556,4.84011 -1.086556,11.65578 0,13.53256 4.148668,19.95311 4.247445,6.42056 10.865558,6.42056 z m 0,-20.447 q -2.469445,0 -4.346223,-1.67923 -1.778001,-1.778 -1.778001,-4.93889 0,-3.06211 1.778001,-4.74133 1.876778,-1.778 4.346223,-1.778 2.469445,0 4.247445,1.778 1.876779,1.67922 1.876779,4.74133 0,3.16089 -1.876779,4.93889 -1.778,1.67923 -4.247445,1.67923 z"
         style="font-style:normal;font-variant:normal;font-weight:normal;font-stretch:normal;font-size:98.7778px;font-family:'SauceCodePro Nerd Font Mono';-inkscape-font-specification:'SauceCodePro Nerd Font Mono, Normal';font-variant-ligatures:normal;font-variant-caps:normal;font-variant-numeric:normal;font-variant-east-asian:normal;fill:#555753"
         id="path1200" />
      <path
         d="m 116.83168,357.74294 q -10.56923,0 -16.59467,-8.4949 -6.025449,-8.59366 -6.025449,-24.39811 0,-15.90323 6.025449,-24.20056 6.02544,-8.29734 16.59467,-8.29734 10.56922,0 16.59467,8.29734 6.02544,8.29733 6.02544,24.20056 0,15.80445 -6.02544,24.39811 -6.02545,8.4949 -16.59467,8.4949 z m 0,-6.51934 q 6.61811,0 10.76678,-6.42056 4.24744,-6.42055 4.24744,-19.95311 0,-6.81567 -1.08655,-11.65578 -1.08656,-4.93889 -3.16089,-8.09978 -1.97556,-3.25967 -4.74134,-4.74134 -2.76577,-1.48166 -6.02544,-1.48166 -3.25967,0 -6.02545,1.48166 -2.76578,1.48167 -4.84011,4.74134 -1.97556,3.16089 -3.06211,8.09978 -1.08656,4.84011 -1.08656,11.65578 0,13.53256 4.14867,19.95311 4.24745,6.42056 10.86556,6.42056 z m 0,-20.447 q -2.46945,0 -4.34623,-1.67923 -1.778,-1.778 -1.778,-4.93889 0,-3.06211 1.778,-4.74133 1.87678,-1.778 4.34623,-1.778 2.46944,0 4.24744,1.778 1.87678,1.67922 1.87678,4.74133 0,3.16089 -1.87678,4.93889 -1.778,1.67923 -4.24744,1.67923 z"
         style="font-style:normal;font-variant:normal;font-weight:normal;font-stretch:normal;font-size:98.7778px;font-family:'SauceCodePro Nerd Font Mono';-inkscape-font-specification:'SauceCodePro Nerd Font Mono, Normal';font-variant-ligatures:normal;font-variant-caps:normal;font-variant-numeric:normal;font-variant-east-asian:normal;fill:#555753"
         id="path1202" />
      <path
         d="m 234.00377,357.74294 q -8.19856,0 -13.73012,-2.66701 -5.53156,-2.76577 -8.98878,-6.223 l 4.14867,-5.334 q 3.16089,2.96334 7.50711,5.23523 4.445,2.27189 10.56923,2.27189 3.25966,0 6.02544,-0.79023 2.76578,-0.889 4.74134,-2.37066 2.07433,-1.48167 3.16089,-3.55601 1.18533,-2.17311 1.18533,-4.84011 0,-2.76578 -1.28411,-5.03767 -1.18533,-2.37066 -3.95111,-4.04989 -2.76578,-1.67922 -7.112,-2.56822 -4.34623,-0.889 -10.56923,-0.889 v -6.223 q 5.63034,0 9.48267,-0.889 3.95111,-0.889 6.42056,-2.46945 2.46944,-1.58044 3.556,-3.75355 1.18533,-2.17311 1.18533,-4.64256 0,-4.64256 -3.556,-7.30956 -3.45722,-2.667 -9.28511,-2.667 -4.445,0 -8.39612,1.778 -3.95111,1.778 -7.112,4.64256 l -4.34622,-5.13644 q 3.95111,-3.45723 8.98878,-5.63034 5.03767,-2.27189 11.16189,-2.27189 4.445,0 8.19856,1.08656 3.85233,1.08655 6.61811,3.16089 2.86456,1.97555 4.445,4.93889 1.58045,2.96333 1.58045,6.81566 0,5.72912 -3.75356,9.3839 -3.75356,3.65477 -9.68022,5.63033 v 0.39511 q 3.16089,0.69145 5.92666,2.07434 2.86456,1.28411 5.03767,3.35844 2.17311,1.97556 3.35845,4.64256 1.28411,2.667 1.28411,5.92667 0,4.14866 -1.778,7.50711 -1.778,3.35844 -4.93889,5.72911 -3.06211,2.27189 -7.21078,3.556 -4.14867,1.18534 -8.89,1.18534 z"
         style="font-style:normal;font-variant:normal;font-weight:normal;font-stretch:normal;font-size:98.7778px;font-family:'SauceCodePro Nerd Font Mono';-inkscape-font-specification:'SauceCodePro Nerd Font Mono, Normal';font-variant-ligatures:normal;font-variant-caps:normal;font-variant-numeric:normal;font-variant-east-asian:normal;fill:#729fcf"
         id="path1204" />
      <path
         d="m 287.20641,356.5576 q 0.39511,-8.98878 1.67922,-16.29834 1.28411,-7.40833 3.75356,-14.02644 2.46944,-6.61812 6.223,-12.84112 3.85233,-6.223 9.28511,-12.84111 h -36.35023 v -7.01323 h 45.63535 v 5.03767 q -6.22301,7.112 -10.2729,13.63134 -4.04989,6.51933 -6.51933,13.335 -2.46945,6.71689 -3.556,14.22401 -1.08656,7.50711 -1.38289,16.79222 z"
         style="font-style:normal;font-variant:normal;font-weight:normal;font-stretch:normal;font-size:98.7778px;font-family:'SauceCodePro Nerd Font Mono';-inkscape-font-specification:'SauceCodePro Nerd Font Mono, Normal';font-variant-ligatures:normal;font-variant-caps:normal;font-variant-numeric:normal;font-variant-east-asian:normal;fill:#729fcf"
         id="path1206" />
      <path
         d="m 412.97217,357.74294 q -10.56922,0 -16.59467,-8.4949 -6.02544,-8.59366 -6.02544,-24.39811 0,-15.90323 6.02544,-24.20056 6.02545,-8.29734 16.59467,-8.29734 10.56923,0 16.59467,8.29734 6.02545,8.29733 6.02545,24.20056 0,15.80445 -6.02545,24.39811 -6.02544,8.4949 -16.59467,8.4949 z m 0,-6.51934 q 6.61812,0 10.76678,-6.42056 4.24745,-6.42055 4.24745,-19.95311 0,-6.81567 -1.08656,-11.65578 -1.08655,-4.93889 -3.16089,-8.09978 -1.97555,-3.25967 -4.74133,-4.74134 -2.76578,-1.48166 -6.02545,-1.48166 -3.25966,0 -6.02544,1.48166 -2.76578,1.48167 -4.84011,4.74134 -1.97556,3.16089 -3.06212,8.09978 -1.08655,4.84011 -1.08655,11.65578 0,13.53256 4.14867,19.95311 4.24744,6.42056 10.86555,6.42056 z m 0,-20.447 q -2.46944,0 -4.34622,-1.67923 -1.778,-1.778 -1.778,-4.93889 0,-3.06211 1.778,-4.74133 1.87678,-1.778 4.34622,-1.778 2.46945,0 4.24745,1.778 1.87678,1.67922 1.87678,4.74133 0,3.16089 -1.87678,4.93889 -1.778,1.67923 -4.24745,1.67923 z"
         style="font-style:normal;font-variant:normal;font-weight:normal;font-stretch:normal;font-size:98.7778px;font-family:'SauceCodePro Nerd Font Mono';-inkscape-font-specification:'SauceCodePro Nerd Font Mono, Normal';font-variant-ligatures:normal;font-variant-caps:normal;font-variant-numeric:normal;font-variant-east-asian:normal;fill:#555753"
         id="path1208" />
      <path
         d="m 472.20026,357.74294 q -10.56922,0 -16.59467,-8.4949 -6.02544,-8.59366 -6.02544,-24.39811 0,-15.90323 6.02544,-24.20056 6.02545,-8.29734 16.59467,-8.29734 10.56923,0 16.59467,8.29734 6.02545,8.29733 6.02545,24.20056 0,15.80445 -6.02545,24.39811 -6.02544,8.4949 -16.59467,8.4949 z m 0,-6.51934 q 6.61811,0 10.76678,-6.42056 4.24745,-6.42055 4.24745,-19.95311 0,-6.81567 -1.08656,-11.65578 -1.08655,-4.93889 -3.16089,-8.09978 -1.97555,-3.25967 -4.74133,-4.74134 -2.76578,-1.48166 -6.02545,-1.48166 -3.25967,0 -6.02544,1.48166 -2.76578,1.48167 -4.84012,4.74134 -1.97555,3.16089 -3.06211,8.09978 -1.08655,4.84011 -1.08655,11.65578 0,13.53256 4.14866,19.95311 4.24745,6.42056 10.86556,6.42056 z m 0,-20.447 q -2.46944,0 -4.34622,-1.67923 -1.778,-1.778 -1.778,-4.93889 0,-3.06211 1.778,-4.74133 1.87678,-1.778 4.34622,-1.778 2.46945,0 4.24745,1.778 1.87678,1.67922 1.87678,4.74133 0,3.16089 -1.87678,4.93889 -1.778,1.67923 -4.24745,1.67923 z"
         style="font-style:normal;font-variant:normal;font-weight:normal;font-stretch:normal;font-size:98.7778px;font-family:'SauceCodePro Nerd Font Mono';-inkscape-font-specification:'SauceCodePro Nerd Font Mono, Normal';font-variant-ligatures:normal;font-variant-caps:normal;font-variant-numeric:normal;font-variant-east-asian:normal;fill:#555753"
         id="path1210" />
      <path
         d="m 61.455916,494.55019 q -5.926668,0 -11.458225,-2.37067 -5.432779,-2.37066 -9.680224,-7.30955 -4.247446,-4.84012 -6.815669,-12.24845 -2.469445,-7.50711 -2.469445,-17.58245 0,-10.07534 2.370668,-17.28612 2.370667,-7.30955 6.420557,-12.05089 4.04989,-4.74133 9.383891,-7.01322 5.432779,-2.27189 11.458225,-2.27189 5.630335,0 9.680224,1.87678 4.148668,1.87678 6.716891,5.13644 2.667001,3.25967 3.951112,7.70467 1.284111,4.34623 1.284111,9.48267 v 29.53456 h -7.704668 l -1.086556,-5.03766 h -0.395111 q -1.876778,2.76577 -4.840112,4.54377 -2.963334,1.67923 -7.013224,1.67923 -2.667001,0 -5.037668,-1.08656 -2.27189,-1.08655 -3.951112,-2.96333 -1.679223,-1.87678 -2.667001,-4.34623 -0.889,-2.56822 -0.889,-5.43277 0,-3.95112 1.679222,-6.81567 1.778001,-2.96334 4.938891,-4.93889 3.259667,-2.07434 7.803446,-3.25967 4.543779,-1.28411 10.174113,-1.97556 v -1.58044 q 0,-2.76578 -0.790222,-5.23523 -0.790222,-2.46944 -2.370667,-4.34622 -1.580445,-1.97555 -4.04989,-3.06211 -2.469445,-1.18533 -5.729113,-1.18533 -3.457223,0 -6.914446,1.67922 -3.457223,1.67922 -6.223001,5.334 -2.765779,3.65478 -4.543779,9.48267 -1.679223,5.72911 -1.679223,13.82889 0,7.70467 1.778001,13.43378 1.778,5.63034 4.642556,9.48267 2.963334,3.75356 6.716891,5.53156 3.753556,1.87678 7.803446,1.87678 4.445001,0 7.309558,-1.08656 2.963334,-0.98778 5.82789,-2.667 l 4.148668,7.21078 q -4.148668,2.46944 -8.297336,3.85233 -4.148667,1.48167 -9.482669,1.48167 z m 3.062112,-32.69545 q 2.173112,0 3.852334,-0.889 1.778001,-0.98778 3.457223,-2.667 v -9.08756 q -6.914446,1.08656 -9.779002,2.86456 -2.765778,1.778 -2.765778,5.03766 0,2.27189 1.382889,3.556 1.382889,1.18534 3.852334,1.18534 z"
         style="fill:#b70000"
         id="path1212" />
      <path
         d="m 120.58523,481.21519 q -3.45722,0 -6.91444,-1.67923 -3.35845,-1.67922 -6.42056,-4.84011 h -0.39511 l -1.18533,5.334 H 94.310339 v -69.24324 h 14.520341 v 16.98979 l -0.49389,7.70467 h 0.29633 q 2.76578,-2.66701 6.32178,-4.14867 3.556,-1.48167 7.112,-1.48167 4.54378,0 8.19856,1.778 3.75356,1.778 6.223,5.03767 2.56822,3.16089 3.95111,7.80345 1.38289,4.54377 1.38289,10.17411 0,6.32178 -1.778,11.26067 -1.778,4.93889 -4.74133,8.39611 -2.96334,3.35845 -6.81567,5.13645 -3.75356,1.778 -7.90223,1.778 z m -3.25966,-11.85334 q 4.04989,0 6.81567,-3.35844 2.76577,-3.45723 2.76577,-11.06312 0,-13.23622 -8.98878,-13.23622 -4.64255,0 -9.08755,4.54378 v 19.85433 q 2.07433,1.778 4.24744,2.56823 2.27189,0.69144 4.24745,0.69144 z"
         style="font-style:normal;font-variant:normal;font-weight:bold;font-stretch:normal;font-size:98.7778px;font-family:'SauceCodePro Nerd Font Mono';-inkscape-font-specification:'SauceCodePro Nerd Font Mono, Normal';font-variant-ligatures:normal;font-variant-caps:normal;font-variant-numeric:normal;font-variant-east-asian:normal;fill:#ef2929;stroke-width:0.264583"
         id="path1214" />
      <path
         d="m 217.11276,480.02985 v -48.99379 h 11.85334 l 1.18533,10.66801 h 0.29634 q 3.65477,-6.02545 8.79122,-8.89001 5.13645,-2.96333 11.06311,-2.96333 3.25967,0 5.23523,0.49389 2.07433,0.49389 4.24744,1.48167 l -2.96333,12.14967 q -2.27189,-0.69145 -4.14867,-0.98778 -1.778,-0.39511 -4.54378,-0.39511 -4.54378,0 -8.98878,2.667 -4.34622,2.667 -7.50711,9.28511 v 25.48467 z"
         style="font-style:normal;font-variant:normal;font-weight:bold;font-stretch:normal;font-size:98.7778px;font-family:'SauceCodePro Nerd Font Mono';-inkscape-font-specification:'SauceCodePro Nerd Font Mono, Normal';font-variant-ligatures:normal;font-variant-caps:normal;font-variant-numeric:normal;font-variant-east-asian:normal;fill:#ef2929;stroke-width:0.264583"
         id="path1216" />
      <path
         d="m 292.34285,480.02985 v -37.63434 h -19.65678 v -11.35945 h 34.17712 v 48.99379 z m 6.61812,-56.69845 q -4.24745,0 -7.01323,-2.37067 -2.667,-2.37067 -2.667,-6.42056 0,-4.04989 2.667,-6.51933 2.76578,-2.56823 7.01323,-2.56823 4.24744,0 6.91444,2.56823 2.76578,2.46944 2.76578,6.51933 0,4.04989 -2.76578,6.42056 -2.667,2.37067 -6.91444,2.37067 z"
         style="font-style:normal;font-variant:normal;font-weight:bold;font-stretch:normal;font-size:98.7778px;font-family:'SauceCodePro Nerd Font Mono';-inkscape-font-specification:'SauceCodePro Nerd Font Mono, Normal';font-variant-ligatures:normal;font-variant-caps:normal;font-variant-numeric:normal;font-variant-east-asian:normal;fill:#ef2929;stroke-width:0.264583"
         id="path1218" />
      <path
         d="m 417.21962,481.21519 q -5.82789,0 -10.76678,-1.67923 -4.93889,-1.778 -8.69245,-5.03766 -3.65478,-3.25967 -5.72911,-8.001 -2.07433,-4.84012 -2.07433,-10.96434 0,-6.12422 2.27188,-10.86556 2.37067,-4.84011 6.22301,-8.09978 3.95111,-3.25967 9.08755,-4.93889 5.13645,-1.778 10.76678,-1.778 5.82789,0 10.47045,1.87678 4.74134,1.87678 7.90223,4.74133 l -6.71689,8.98878 q -5.43278,-3.85233 -10.86556,-3.85233 -6.32178,0 -10.27289,3.75356 -3.95112,3.75355 -3.95112,10.17411 0,6.42056 3.75356,10.17411 3.85233,3.75356 9.97656,3.75356 3.85233,0 7.01322,-1.38289 3.25967,-1.38289 5.92667,-3.25967 l 5.82789,9.18634 q -4.445,3.75355 -9.779,5.53155 -5.334,1.67923 -10.37167,1.67923 z"
         style="font-style:normal;font-variant:normal;font-weight:bold;font-stretch:normal;font-size:98.7778px;font-family:'SauceCodePro Nerd Font Mono';-inkscape-font-specification:'SauceCodePro Nerd Font Mono, Normal';font-variant-ligatures:normal;font-variant-caps:normal;font-variant-numeric:normal;font-variant-east-asian:normal;fill:#ef2929;stroke-width:0.264583"
         id="path1220" />
      <path
         d="m 470.12593,481.21519 q -8.09978,0 -13.92767,-2.37067 -5.82789,-2.46944 -9.48267,-6.51933 l 6.71689,-9.18634 q 3.16089,2.76578 7.01322,4.54378 3.95112,1.778 8.29734,1.778 5.13644,0 8.39611,-1.87678 3.35845,-1.97556 3.35845,-5.53156 0,-2.07433 -0.889,-3.75355 -0.889,-1.67923 -3.06212,-2.76578 -2.17311,-1.18533 -5.82789,-1.778 -3.65477,-0.69145 -9.18633,-0.69145 v -10.27289 q 9.28511,0 13.03867,-2.27189 3.85233,-2.37066 3.85233,-6.12422 0,-3.25967 -2.46944,-5.03767 -2.46945,-1.87678 -6.81567,-1.87678 -3.75356,0 -6.91445,1.48167 -3.16089,1.48167 -6.42055,4.04989 l -7.30956,-8.89 q 4.64256,-3.75356 9.87778,-5.82789 5.334,-2.17311 11.45822,-2.17311 5.13645,0 9.3839,1.18533 4.24744,1.08656 7.30955,3.35845 3.06211,2.17311 4.74134,5.334 1.67922,3.16089 1.67922,7.30955 0,4.93889 -3.16089,8.39612 -3.16089,3.35844 -8.79122,5.53155 v 0.39511 q 5.92666,1.58045 9.97655,5.43278 4.04989,3.75356 4.04989,9.87778 0,4.34623 -2.07433,7.80345 -1.97556,3.35845 -5.43278,5.72911 -3.35844,2.27189 -7.90222,3.556 -4.54378,1.18534 -9.48267,1.18534 z"
         style="font-style:normal;font-variant:normal;font-weight:bold;font-stretch:normal;font-size:98.7778px;font-family:'SauceCodePro Nerd Font Mono';-inkscape-font-specification:'SauceCodePro Nerd Font Mono, Normal';font-variant-ligatures:normal;font-variant-caps:normal;font-variant-numeric:normal;font-variant-east-asian:normal;fill:#ef2929;stroke-width:0.264583"
         id="path1222" />
    </g>
    <text
       xml:space="preserve"
       id="text1170"
       style="font-style:normal;font-weight:normal;font-size:10.58329999999999949px;line-height:1.25;font-family:sans-serif;white-space:pre;shape-inside:url(#rect1174);fill:#000000;fill-opacity:1;stroke:none;" />
  </g>
</svg>
